<?xml version="1.0" standalone="no"?>
<!DOCTYPE svg PUBLIC "-//W3C//DTD SVG 20010904//EN"
 "http://www.w3.org/TR/2001/REC-SVG-20010904/DTD/svg10.dtd">
<svg version="1.0" xmlns="http://www.w3.org/2000/svg"
 width="1600.000000pt" height="1600.000000pt" viewBox="0 0 1600.000000 1600.000000"
 preserveAspectRatio="xMidYMid meet">
<metadata>
Created by potrace 1.11, written by Peter Selinger 2001-2013
</metadata>
<g transform="translate(0.000000,1600.000000) scale(0.100000,-0.100000)"
fill="#000000" stroke="none">
<path d="M8180 15988 c-400 -38 -704 -241 -852 -566 -52 -115 -79 -241 -84
-387 -6 -226 40 -392 163 -588 33 -52 197 -217 253 -255 110 -73 239 -128 380
-163 79 -19 122 -23 260 -23 95 -1 195 5 235 12 560 104 887 538 833 1104 -29
303 -199 573 -453 720 -206 118 -472 171 -735 146z"/>
<path d="M6617 14204 c-1 -1 -36 -5 -77 -8 -135 -12 -308 -63 -420 -124 -239
-132 -397 -334 -468 -602 -21 -82 -25 -116 -25 -255 0 -141 3 -172 26 -258
100 -375 403 -647 812 -728 77 -15 338 -19 420 -6 358 56 641 256 778 548 141
302 115 720 -63 991 -182 278 -493 432 -888 441 -52 1 -94 2 -95 1z"/>
<path d="M9817 14204 c-1 -1 -36 -5 -77 -8 -248 -22 -482 -129 -645 -293 -192
-194 -289 -462 -271 -753 27 -464 358 -826 841 -921 77 -15 339 -19 420 -6
358 56 641 256 778 548 135 289 117 686 -43 959 -174 296 -495 464 -908 473
-52 1 -94 2 -95 1z"/>
<path d="M5665 12188 c-394 -34 -710 -242 -857 -565 -16 -37 -42 -111 -56
-163 -22 -82 -25 -116 -26 -255 0 -144 3 -170 27 -259 100 -363 387 -631 767
-717 114 -26 311 -35 425 -20 571 76 924 474 908 1025 -7 254 -92 470 -254
648 -36 40 -169 148 -181 148 -4 0 -29 13 -55 28 -173 101 -446 152 -698 130z"/>
<path d="M10705 12193 c-525 -33 -895 -349 -970 -828 -86 -545 250 -1018 808
-1141 102 -23 339 -27 452 -8 543 90 878 491 858 1027 -20 555 -423 931 -1018
949 -49 2 -108 2 -130 1z"/>
<path d="M4875 10193 c-29 -3 -164 -22 -195 -28 -29 -6 -135 -38 -150 -46 -8
-4 -40 -19 -71 -32 -69 -30 -161 -89 -230 -148 -123 -103 -245 -303 -284 -463
-9 -38 -19 -79 -22 -90 -3 -12 -7 -84 -9 -161 -6 -228 41 -395 163 -578 42
-62 196 -227 213 -227 4 0 18 -9 31 -21 38 -33 177 -104 259 -134 135 -48 243
-65 400 -65 164 1 283 20 414 67 420 151 662 506 651 957 -7 278 -97 500 -274
676 -152 151 -384 258 -616 286 -63 7 -229 11 -280 7z"/>
<path d="M11230 10179 c-274 -28 -492 -124 -662 -293 -189 -188 -282 -434
-274 -726 9 -298 118 -522 356 -730 123 -108 311 -189 520 -226 75 -13 329
-12 400 1 313 58 545 202 696 431 185 281 210 688 62 1001 -140 297 -440 497
-804 538 -84 10 -216 11 -294 4z"/>
<path d="M4460 8172 c-277 -15 -544 -125 -711 -293 -176 -177 -265 -394 -274
-664 -6 -186 21 -318 96 -470 134 -271 377 -458 699 -536 135 -32 399 -33 543
-1 275 61 495 206 633 418 222 339 209 835 -29 1154 -200 269 -557 415 -957
392z"/>
<path d="M11694 8164 c-321 -38 -576 -185 -743 -427 -159 -231 -204 -594 -109
-877 97 -287 334 -518 638 -620 242 -82 574 -75 817 16 100 38 198 94 278 159
228 186 347 447 348 760 0 126 -6 173 -32 278 -82 318 -310 556 -634 661 -164
53 -374 72 -563 50z"/>
<path d="M4420 5888 c-555 -46 -930 -422 -945 -948 -11 -373 150 -678 460
-875 181 -115 388 -167 640 -161 176 4 308 31 451 93 444 192 664 658 548
1162 -111 485 -574 777 -1154 729z"/>
<path d="M11866 5883 c-316 -40 -576 -190 -732 -424 -104 -157 -153 -317 -159
-519 -6 -193 20 -321 97 -475 136 -272 370 -454 693 -536 78 -19 115 -23 275
-23 188 0 269 12 405 59 375 128 616 432 653 823 39 410 -130 766 -454 954
-216 125 -496 176 -778 141z"/>
<path d="M5197 3654 c-1 -1 -42 -4 -92 -7 -89 -6 -242 -40 -320 -72 -386 -155
-613 -494 -613 -915 0 -467 301 -841 778 -966 123 -33 358 -41 495 -18 529 88
857 462 857 979 1 581 -398 974 -1010 998 -51 2 -93 3 -95 1z"/>
<path d="M11275 3653 c-574 -35 -965 -416 -980 -958 -6 -188 21 -317 97 -470
122 -246 329 -420 603 -509 119 -38 225 -54 370 -54 462 1 841 235 989 609 22
58 42 130 63 229 3 14 5 84 5 155 0 248 -67 456 -201 625 -202 256 -557 396
-946 373z"/>
<path d="M6925 2179 c-49 -4 -101 -9 -115 -12 -366 -73 -626 -267 -756 -566
-59 -137 -78 -234 -78 -411 1 -136 4 -167 27 -253 66 -248 229 -463 447 -591
317 -185 733 -207 1079 -58 361 157 572 485 574 897 0 124 -5 171 -32 278 -43
164 -119 301 -236 419 -217 221 -538 325 -910 297z"/>
<path d="M9465 2182 c-88 -7 -198 -25 -263 -43 -341 -94 -595 -340 -682 -661
-29 -109 -31 -123 -35 -253 -6 -179 22 -317 92 -463 133 -273 386 -468 704
-543 127 -30 391 -33 519 -6 362 78 623 285 744 590 107 270 88 626 -46 876
-167 311 -517 500 -933 505 -38 1 -83 0 -100 -2z"/>
</g>
</svg>
